<svg xmlns:xlink="http://www.w3.org/1999/xlink" fill="none" viewBox="0 0 100 23" width="135" height="31.05" xmlns="http://www.w3.org/2000/svg" data-testid="logo-component"><g data-testid="logo-academy-text" fill="#000000"><path d="M58.8885 13.6938H56.3337L55.8683 15.611H54.7857L57.0487 6.78114H58.1692L60.4351 15.611H59.3525L58.8885 13.6938ZM58.6624 12.7345L57.9445 9.7454C57.8059 9.17799 57.6804 8.42925 57.6294 8.0929H57.5914C57.5418 8.43363 57.4149 9.17799 57.2763 9.7454L56.5584 12.7345H58.6624Z"></path><path d="M61.369 13.0635V9.3286C61.369 7.58836 62.3509 6.61588 63.8231 6.61588C65.3332 6.61588 66.2641 7.54888 66.3531 9.24817H65.3318C65.2559 8.11336 64.7277 7.58251 63.8085 7.58251C62.9652 7.58251 62.3991 8.13676 62.3991 9.32275V13.0635C62.3991 14.2335 62.99 14.7921 63.8465 14.7921C64.7773 14.7921 65.2938 14.2495 65.3945 13.1396H66.4158C66.3152 14.8169 65.3843 15.7631 63.8479 15.7631C62.3626 15.7631 61.369 14.8038 61.369 13.0635Z"></path><path d="M71.0847 13.6938H68.53L68.0645 15.611H66.9819L69.2478 6.78114H70.3683L72.6343 15.611H71.5516L71.0847 13.6938ZM70.8586 12.7345L70.1407 9.7454C70.0021 9.17799 69.8767 8.42925 69.8256 8.0929H69.7877C69.738 8.43363 69.6111 9.17799 69.4725 9.7454L68.7546 12.7345H70.8586Z"></path><path d="M73.9737 6.78114H76.063C77.7497 6.78114 78.7316 7.76532 78.7316 9.45584V12.9378C78.7316 14.6283 77.738 15.6125 76.0761 15.6125H73.9737V6.78114ZM76.0805 14.6283C77.1121 14.6283 77.7044 14.0434 77.7044 12.8998V9.48071C77.7044 8.34589 77.1208 7.76532 76.0805 7.76532H75.011V14.6283H76.0805Z"></path><path d="M85.0039 14.64V15.611H80.6501V6.78114H84.8667V7.74046H81.6816V10.655H84.6391V11.6012H81.6816V14.6415L85.0039 14.64Z"></path><path d="M93.3235 6.78114V15.611H92.3022V11.5573C92.3153 10.598 92.3401 9.74101 92.3897 8.88259L92.3386 8.86943C92.0994 9.53774 91.7725 10.3581 91.4632 11.1902L90.544 13.5739H89.5227L88.5918 11.1902C88.2898 10.3581 87.9498 9.53774 87.7164 8.86943L87.6537 8.88259C87.7047 9.74101 87.7412 10.598 87.7412 11.5573V15.6066H86.7199V6.78114H87.8025L89.3257 10.4766C89.5402 11.006 89.8539 11.8761 89.9925 12.3309H90.0436C90.1895 11.8776 90.509 11.006 90.7235 10.4766L92.2467 6.78114H93.3235Z"></path><path d="M96.7843 12.581L94.619 6.78114H95.7017L96.8208 9.94867C96.9667 10.3654 97.1476 10.87 97.2993 11.3233H97.3183C97.4642 10.8685 97.6451 10.3523 97.7969 9.92381L98.9174 6.7826H100L97.8158 12.581V15.6081H96.7843V12.581Z"></path></g><g data-testid="logo-gama-text" fill="#41b883"><path d="M38.062 12.7484H36.0865V8.43379L38.062 8.07776V12.7484Z" fill="#41b883"></path><path d="M40.8979 12.7484H38.9224V7.49115L40.8979 7.11616V12.7484Z" fill="#41b883"></path><path d="M43.7323 6.63466H41.7568V12.7484H43.7323V6.63466Z" fill="#41b883"></path><path d="M46.5697 12.7483H44.5942V7.48671L46.5697 7.84274V12.7483Z" fill="#41b883"></path><path d="M46.5681 13.6151H41.7596V15.5951H46.5681V13.6151Z" fill="#41b883"></path><path d="M41.291 22.2283C39.0978 22.2283 36.9539 21.5765 35.1304 20.3552C33.3069 19.134 31.8856 17.3982 31.0463 15.3674C30.207 13.3365 29.9874 11.1018 30.4153 8.94589C30.8432 6.78996 31.8993 4.80961 33.45 3.25526C35.0008 1.70092 36.9767 0.642402 39.1277 0.21356C41.2787 -0.215282 43.5082 0.0048156 45.5345 0.846019C47.5607 1.68722 49.2925 3.11175 50.5109 4.93946C51.7294 6.76718 52.3797 8.91598 52.3797 11.1142C52.3766 14.0609 51.2074 16.886 49.1285 18.9696C47.0496 21.0533 44.2309 22.2252 41.291 22.2283ZM41.291 2.19015C39.5297 2.19015 37.808 2.71362 36.3436 3.69436C34.8792 4.6751 33.7378 6.06907 33.0638 7.69999C32.3898 9.3309 32.2134 11.1255 32.557 12.8569C32.9006 14.5883 33.7488 16.1786 34.9941 17.4269C36.2395 18.6751 37.8263 19.5252 39.5537 19.8696C41.2811 20.214 43.0716 20.0372 44.6988 19.3617C46.326 18.6861 47.7168 17.5421 48.6953 16.0743C49.6738 14.6065 50.196 12.8809 50.196 11.1156C50.1926 8.74977 49.2532 6.48186 47.5838 4.80923C45.9144 3.1366 43.6514 2.19577 41.291 2.19307V2.19015Z" fill="#41b883"></path><path d="M0 12.8485V9.33879C0 7.50934 1.00674 6.52515 2.6934 6.52515C4.32899 6.52515 5.26132 7.50934 5.31968 9.30369H3.77309C3.73516 8.40871 3.3952 8.02995 2.69048 8.02995C1.98576 8.02995 1.5962 8.42041 1.5962 9.3461V12.8558C1.5962 13.7771 1.99889 14.172 2.71674 14.172C3.4594 14.172 3.86209 13.7815 3.86209 12.8851V12.0267H2.64087V10.652H5.37221V12.8734C5.33427 14.6648 4.35087 15.6607 2.69194 15.6607C1.033 15.6607 0 14.6648 0 12.8485Z" fill="#41b883"></path><path d="M10.2658 13.9088H8.20271L7.84962 15.5174H6.24467L8.4099 6.6875H10.0674L12.2297 15.5057H10.6247L10.2658 13.9088ZM9.95211 12.4347L9.59902 10.7953C9.47354 10.1899 9.33493 9.21889 9.24593 8.62516H9.208C9.13213 9.21743 8.99352 10.1899 8.86804 10.7953L8.51641 12.4347H9.95211Z" fill="#41b883"></path><path d="M20.6863 6.68021V15.5057H19.1646V12.7477C19.2025 11.7137 19.2404 10.7003 19.29 9.70735L19.2273 9.68249C18.9749 10.4137 18.686 11.2092 18.4088 12.0033L17.8179 13.5681H16.2815L15.6906 12.0033C15.4134 11.2092 15.1361 10.4137 14.872 9.68249L14.8093 9.70735C14.8589 10.7032 14.8969 11.7123 14.9348 12.7477V15.5057H13.4232V6.68021H14.9844L16.4186 10.1358C16.6069 10.6023 16.9089 11.4096 17.0227 11.7752H17.0708C17.1846 11.4096 17.4983 10.6053 17.688 10.1358L19.1135 6.68021H20.6863Z" fill="#41b883"></path><path d="M25.9097 13.9088H23.8466L23.4906 15.5058H21.8857L24.0509 6.67587H25.7084L27.8677 15.5058H26.2628L25.9097 13.9088ZM25.596 12.4348L25.2415 10.7925C25.116 10.1871 24.9774 9.21603 24.8884 8.6223H24.8504C24.7746 9.21457 24.6359 10.1871 24.5105 10.7925L24.1603 12.4348H25.596Z" fill="#41b883"></path></g></svg>